<svg width="16" height="16" viewBox="0 0 16 16" fill="none" xmlns="http://www.w3.org/2000/svg">
<path d="M5.36001 7.9995L0.410208 12.9493C-0.136696 13.4962 -0.136696 14.3829 0.410208 14.9289L1.07008 15.5888C1.61715 16.1359 2.50382 16.1359 3.04987 15.5888L7.9995 10.6392L12.9493 15.5898C13.4962 16.1367 14.3829 16.1367 14.9289 15.5898L15.5898 14.93C16.1367 14.3829 16.1367 13.4962 15.5898 12.9502L10.6392 7.9995L15.5888 3.04987C16.1359 2.50279 16.1359 1.61613 15.5888 1.07008L14.9289 0.410208C14.382 -0.136696 13.4954 -0.136696 12.9493 0.410208L7.9995 5.36001L3.04987 0.410208C2.50279 -0.136696 1.61613 -0.136696 1.07008 0.410208L0.410208 1.07008C-0.136696 1.61715 -0.136696 2.50382 0.410208 3.04987L5.36001 7.9995Z" fill="#C20114"/>
</svg>
