<svg width="65" height="65" viewBox="0 0 65 65" fill="none" xmlns="http://www.w3.org/2000/svg">
<path d="M59.0891 37.9336C59.6988 36.4578 60.0194 34.8787 60.0336 33.282C60.0336 30.0497 58.7496 26.9498 56.464 24.6642C54.1784 22.3786 51.0784 21.0945 47.8461 21.0945H47.2062C46.684 19.1723 45.5482 17.4733 43.9715 16.2559C42.3948 15.0386 40.4637 14.3696 38.4719 14.3508C37.1203 14.3324 35.7826 14.6252 34.5621 15.2063C33.3417 15.7875 32.2713 16.6415 31.4336 17.7023C30.2678 17.4609 29.0795 17.3451 27.8891 17.357C27.3508 17.357 26.8227 17.357 26.3047 17.4281C22.2937 17.7853 18.5499 19.5904 15.7727 22.5063L15.6812 22.6078C15.4375 22.8617 15.2039 23.1359 14.9805 23.4102C14.757 23.6844 14.7367 23.7047 14.625 23.857C14.5133 24.0094 14.3609 24.2125 14.2289 24.3953C14.0969 24.5781 13.8531 24.9438 13.6805 25.2281L13.5281 25.4719C12.5008 27.2201 11.8117 29.1461 11.4969 31.1492C11.4969 31.1492 11.4969 31.2203 11.4969 31.2609C11.4969 31.4844 11.4156 31.718 11.3852 31.9516C9.02723 32.2418 6.86743 33.4164 5.3424 35.238C3.81736 37.0597 3.04085 39.3924 3.16985 41.7646C3.29884 44.1368 4.32372 46.3715 6.03729 48.0171C7.75086 49.6626 10.0253 50.5961 12.4008 50.6289H55.0875C56.5549 50.5902 57.9735 50.0943 59.1455 49.2105C60.3175 48.3266 61.1842 47.0989 61.6249 45.6987C62.0655 44.2986 62.058 42.7957 61.6034 41.4C61.1488 40.0043 60.2698 38.7854 59.0891 37.9133V37.9336ZM55.0266 48.618H12.3703C11.406 48.624 10.45 48.44 9.5568 48.0765C8.66361 47.713 7.85076 47.1772 7.16466 46.4996C5.77902 45.1311 4.99376 43.2682 4.98164 41.3207C4.96952 39.3732 5.73152 37.5007 7.10003 36.1151C8.46853 34.7294 10.3314 33.9442 12.2789 33.932H13.2031L13.2641 33.018C13.545 29.2473 15.2743 25.7317 18.0898 23.2079C20.9052 20.684 24.5882 19.3477 28.367 19.479C32.1458 19.6103 35.7271 21.199 38.3606 23.9122C40.994 26.6254 42.4752 30.2526 42.4938 34.0336C42.4899 35.5213 42.2639 37.0001 41.8234 38.4211C41.7441 38.6783 41.7701 38.9565 41.8958 39.1946C42.0215 39.4326 42.2366 39.6111 42.4938 39.6906C42.5889 39.722 42.6881 39.7391 42.7883 39.7414C43.0136 39.751 43.2357 39.6854 43.4196 39.5548C43.6035 39.4243 43.7387 39.2362 43.8039 39.0203C44.3053 37.4054 44.562 35.7245 44.5656 34.0336C44.5585 33.2176 44.494 32.4031 44.3727 31.5961C45.4299 31.6826 46.4624 31.9614 47.4195 32.4188C49.3381 33.3641 50.8065 35.0278 51.5062 37.049C52.2059 39.0701 52.0804 41.2856 51.157 43.2148C51.0419 43.4574 51.0275 43.7356 51.117 43.9887C51.2064 44.2419 51.3924 44.4493 51.6344 44.5656C51.7698 44.6337 51.9195 44.6685 52.0711 44.6672C52.2625 44.6666 52.4499 44.612 52.6116 44.5096C52.7734 44.4072 52.9028 44.2611 52.9852 44.0883C54.1412 41.6717 54.2957 38.8962 53.415 36.3662C52.5343 33.8363 50.6896 31.7567 48.2828 30.5805C46.9164 29.9336 45.4272 29.5873 43.9156 29.5648C43.1971 27.0067 41.8787 24.6568 40.0699 22.7103C38.2612 20.7638 36.0142 19.2768 33.5156 18.3727C34.1578 17.7258 34.9222 17.2132 35.7644 16.8644C36.6065 16.5157 37.5096 16.3379 38.4211 16.3414C40.1052 16.3546 41.7299 16.9651 43.0059 18.0644C44.2818 19.1636 45.1261 20.6801 45.3883 22.3438L45.5609 23.4406L46.6375 23.1766C47.0284 23.098 47.4274 23.0673 47.8258 23.0852C50.5194 23.0852 53.1027 24.1552 55.0073 26.0599C56.912 27.9645 57.982 30.5478 57.982 33.2414C57.9651 34.8584 57.5869 36.4512 56.875 37.9031L56.4789 38.7766L57.3219 39.2234C58.2868 39.7532 59.0502 40.5862 59.4941 41.5935C59.938 42.6008 60.0375 43.7263 59.7774 44.7959C59.5172 45.8655 58.9118 46.8195 58.0548 47.5104C57.1979 48.2013 56.1371 48.5906 55.0367 48.618H55.0266Z" fill="black"/>
</svg>
