<svg width="21" height="21" viewBox="0 0 21 21" fill="none" xmlns="http://www.w3.org/2000/svg">
<g clip-path="url(#clip0)">
<path d="M9.43953 0C4.59616 0 0.655518 4.14877 0.655518 9.24796C0.655518 14.3474 4.59616 18.4959 9.43953 18.4959C14.2832 18.4959 18.2235 14.3474 18.2235 9.24796C18.2235 4.14877 14.2832 0 9.43953 0ZM9.43953 16.7886C5.49024 16.7886 2.27718 13.4059 2.27718 9.248C2.27718 5.09012 5.49024 1.70732 9.43953 1.70732C13.3888 1.70732 16.6019 5.09008 16.6019 9.24796C16.6019 13.4058 13.3888 16.7886 9.43953 16.7886Z" fill="black"/>
<path d="M20.3644 19.5428L15.7157 14.6485C15.3989 14.315 14.8859 14.315 14.5691 14.6485C14.2524 14.9817 14.2524 15.5223 14.5691 15.8556L19.2179 20.7499C19.2931 20.8293 19.3824 20.8923 19.4808 20.9352C19.5792 20.9781 19.6847 21.0001 19.7912 21C19.8977 21.0001 20.0031 20.9781 20.1015 20.9351C20.1999 20.8922 20.2892 20.8293 20.3644 20.7499C20.6812 20.4167 20.6812 19.876 20.3644 19.5428Z" fill="black"/>
</g>
<defs>
<clipPath id="clip0">
<rect width="19.9465" height="21" fill="white" transform="translate(0.655518)"/>
</clipPath>
</defs>
</svg>
