<svg width="59" height="42" viewBox="0 0 59 42" fill="none" xmlns="http://www.w3.org/2000/svg">
<path d="M56.0891 28.8039C56.7027 27.3151 57.0234 25.722 57.0336 24.1117C57.0248 22.1982 56.5595 20.3144 55.6762 18.6168C54.793 16.9193 53.5174 15.457 51.9555 14.3516C51.9754 11.2495 50.9738 8.22717 49.1052 5.75101C47.2366 3.27484 44.6049 1.48255 41.6164 0.650781C38.3927 -0.173363 34.9831 0.144186 31.967 1.54946C28.951 2.95473 26.5146 5.36103 25.0719 8.35938H24.8688C24.3406 8.35938 23.8531 8.35938 23.2844 8.43047C20.3104 8.6862 17.4616 9.74419 15.0416 11.4917C12.6216 13.2391 10.7212 15.6105 9.54299 18.3531C9.54299 18.4648 9.45158 18.5664 9.41096 18.6781C9.28908 18.9828 9.17736 19.2875 9.06564 19.6023C8.95392 19.9172 8.93361 20.0188 8.87267 20.2219C8.81174 20.425 8.73049 20.7398 8.66955 20.9937C8.60861 21.2477 8.54767 21.5117 8.49689 21.7656C8.44611 22.0195 8.40549 22.3039 8.36486 22.568C8.32424 22.832 8.36486 22.8219 8.30392 22.9539C6.03601 23.2061 3.94043 24.2847 2.41734 25.9839C0.894258 27.6831 0.0503936 29.8837 0.046892 32.1656C0.0333716 34.651 1.00637 37.0403 2.75238 38.8092C4.49839 40.578 6.8748 41.582 9.36017 41.6008H52.0875C53.5573 41.5474 54.9744 41.0396 56.1435 40.1471C57.3126 39.2547 58.1761 38.0216 58.6151 36.6179C59.054 35.2141 59.0468 33.7088 58.5944 32.3093C58.142 30.9098 57.2667 29.6851 56.0891 28.8039ZM27.2758 8.44063C28.6232 6.09411 30.7023 4.25365 33.195 3.20084C35.6876 2.14802 38.4566 1.94082 41.0781 2.61094C43.4457 3.26412 45.5592 4.62082 47.1388 6.50149C48.7184 8.38216 49.6897 10.6982 49.9242 13.143L49.8125 13.082C49.5078 12.95 49.2031 12.8383 48.8985 12.7266L48.6852 12.6555C48.2851 12.5224 47.8783 12.4105 47.4664 12.3203C47.0399 12.2289 46.6133 12.1578 46.1766 12.107C45.75 12.107 45.3133 12.0359 44.8766 12.0359H44.2266C43.727 10.0911 42.6008 8.36481 41.0221 7.12388C39.4435 5.88296 37.5001 5.19641 35.4922 5.17031C35.1527 5.17006 34.8136 5.19041 34.4766 5.23125C34.3446 5.23125 34.2125 5.28203 34.0906 5.30234L33.4813 5.40391L33.0039 5.54609C32.8414 5.59687 32.6688 5.6375 32.5164 5.69844C32.3641 5.75937 32.1914 5.83047 32.0289 5.90156L31.5922 6.09453C31.4346 6.16927 31.2819 6.25408 31.1352 6.34844C30.993 6.42969 30.8508 6.50078 30.7086 6.59219C30.5664 6.68359 30.4344 6.78516 30.3024 6.88672C30.1703 6.98828 30.018 7.07969 29.8961 7.18125C29.7742 7.28281 29.6524 7.40469 29.5305 7.50625C29.4086 7.60781 29.2664 7.73984 29.1344 7.87188L28.8399 8.20703C28.7078 8.34922 28.5758 8.49141 28.4539 8.64375H28.1594L27.2758 8.44063ZM52.0469 39.5695H9.39064C7.44621 39.5351 5.59246 38.7411 4.2259 37.3575C2.85933 35.9738 2.08845 34.1103 2.07814 32.1656C2.06461 30.2513 2.81075 28.4096 4.15298 27.0446C5.49521 25.6795 7.32397 24.9024 9.2383 24.8836H10.2031L10.2641 23.9289C10.2641 23.5633 10.3352 23.2078 10.386 22.8422C10.386 22.7203 10.386 22.5984 10.386 22.4766C10.386 22.3547 10.4875 21.9891 10.5383 21.7352C10.5891 21.4812 10.6195 21.3086 10.6805 21.1055C10.7652 20.7788 10.8669 20.4567 10.9852 20.1406C10.9852 20.0391 11.0461 19.9273 11.0867 19.8258C12.2969 16.6201 14.5921 13.9398 17.5733 12.2507C20.5546 10.5616 24.0335 9.97048 27.4053 10.5801C30.7772 11.1898 33.8288 12.9617 36.0298 15.5878C38.2309 18.2139 39.4421 21.5282 39.4531 24.9547C39.456 26.3964 39.2297 27.8293 38.7828 29.2C38.74 29.3273 38.7229 29.4619 38.7325 29.5959C38.7421 29.7299 38.7781 29.8607 38.8386 29.9806C38.899 30.1006 38.9827 30.2074 39.0847 30.2948C39.1867 30.3822 39.305 30.4485 39.4328 30.4898C39.5349 30.5215 39.6409 30.5386 39.7477 30.5406C39.9691 30.5522 40.1883 30.4909 40.3717 30.3662C40.5551 30.2415 40.6926 30.0602 40.7633 29.85C41.2793 28.2697 41.5398 26.6171 41.5352 24.9547C41.5159 21.5416 40.4486 18.2169 38.4777 15.4303C36.5068 12.6438 33.7274 10.53 30.5156 9.375C31.1511 8.71348 31.9124 8.18578 32.7549 7.82298C33.5973 7.46018 34.5039 7.26961 35.4211 7.2625C37.1135 7.28627 38.7418 7.91301 40.0133 9.03004C41.2849 10.1471 42.1162 11.6811 42.3578 13.3562L42.5508 14.4531L43.6375 14.1891C44.0318 14.1101 44.4342 14.0794 44.836 14.0977C45.288 14.1014 45.7392 14.1353 46.1867 14.1992H46.4305C47.3163 14.341 48.18 14.5971 49 14.9609L49.3047 15.1031C49.5789 15.2352 49.8531 15.3875 50.107 15.5398C51.5926 16.4256 52.8239 17.6803 53.6816 19.1822C54.5394 20.6841 54.9943 22.3822 55.0024 24.1117C54.9685 25.6964 54.5835 27.2539 53.875 28.6719L53.4485 29.5148L54.261 29.9922C55.0563 30.437 55.7207 31.0831 56.1877 31.8656C56.6547 32.6481 56.9079 33.5396 56.9219 34.4508C56.9335 35.7701 56.4312 37.0422 55.5212 37.9976C54.6113 38.953 53.3652 39.5168 52.0469 39.5695Z" fill="black"/>
</svg>
