<svg width="65" height="65" viewBox="0 0 65 65" fill="none" xmlns="http://www.w3.org/2000/svg">
<path d="M40.8586 12.4719C41.1279 12.4719 41.3863 12.3649 41.5767 12.1744C41.7672 11.9839 41.8742 11.7256 41.8742 11.4563V9.425C41.8742 9.15564 41.7672 8.89731 41.5767 8.70685C41.3863 8.51638 41.1279 8.40938 40.8586 8.40938C40.5892 8.40938 40.3309 8.51638 40.1404 8.70685C39.95 8.89731 39.843 9.15564 39.843 9.425V11.4563C39.843 11.7256 39.95 11.9839 40.1404 12.1744C40.3309 12.3649 40.5892 12.4719 40.8586 12.4719Z" fill="black"/>
<path d="M49.4203 14.7672C49.5618 14.8397 49.7184 14.878 49.8773 14.8789C50.0649 14.8783 50.2486 14.8258 50.4082 14.7273C50.5677 14.6287 50.6969 14.4878 50.7813 14.3203C50.7813 14.3203 51.0352 13.8227 51.7258 12.543C51.8605 12.3073 51.896 12.0277 51.8246 11.7658C51.7531 11.504 51.5806 11.2812 51.3449 11.1465C51.1092 11.0118 50.8297 10.9763 50.5678 11.0477C50.3059 11.1191 50.0831 11.2917 49.9484 11.5273C49.207 12.8781 48.9328 13.3656 48.9328 13.3656C48.868 13.4888 48.8292 13.6239 48.8188 13.7626C48.8084 13.9014 48.8266 14.0408 48.8723 14.1722C48.9181 14.3036 48.9903 14.4243 49.0845 14.5266C49.1788 14.629 49.2931 14.7108 49.4203 14.7672Z" fill="black"/>
<path d="M56.3672 21.3281C56.5254 21.3303 56.6819 21.2955 56.8242 21.2266C56.8242 21.2266 57.3117 20.9828 58.6625 20.2109C58.8982 20.0763 59.0707 19.8535 59.1422 19.5916C59.2136 19.3297 59.1781 19.0501 59.0434 18.8145C58.9087 18.5788 58.6859 18.4062 58.424 18.3348C58.1621 18.2634 57.8826 18.2989 57.6469 18.4336C56.3672 19.1242 55.8899 19.368 55.8695 19.3781C55.6421 19.4705 55.4558 19.6422 55.3451 19.8613C55.2345 20.0805 55.207 20.3323 55.2677 20.5702C55.3284 20.8081 55.4732 21.016 55.6754 21.1553C55.8775 21.2946 56.1233 21.356 56.3672 21.3281Z" fill="black"/>
<path d="M57.7586 29.3719C57.7586 29.6412 57.8656 29.8996 58.0561 30.09C58.2465 30.2805 58.5049 30.3875 58.7742 30.3875H60.8055C61.0748 30.3875 61.3332 30.2805 61.5236 30.09C61.7141 29.8996 61.8211 29.6412 61.8211 29.3719C61.8211 29.1025 61.7141 28.8442 61.5236 28.6537C61.3332 28.4633 61.0748 28.3563 60.8055 28.3563H58.7742C58.5049 28.3563 58.2465 28.4633 58.0561 28.6537C57.8656 28.8442 57.7586 29.1025 57.7586 29.3719Z" fill="black"/>
<path d="M23.1766 20.3125C24.4156 20.993 24.7813 21.2266 24.7813 21.2266C24.9675 21.327 25.1819 21.3627 25.3906 21.3281C25.6085 21.3286 25.8207 21.259 25.996 21.1297C26.1713 21.0003 26.3003 20.818 26.3641 20.6097C26.4278 20.4014 26.4229 20.1781 26.35 19.9728C26.2772 19.7675 26.1402 19.591 25.9594 19.4695C25.9594 19.4695 25.5227 19.1852 24.2024 18.4539C24.0857 18.3872 23.957 18.3442 23.8236 18.3272C23.6903 18.3103 23.5549 18.3198 23.4252 18.3551C23.2956 18.3905 23.1741 18.451 23.0679 18.5333C22.9616 18.6156 22.8726 18.7181 22.8059 18.8348C22.7392 18.9515 22.6961 19.0802 22.6792 19.2135C22.6622 19.3468 22.6717 19.4822 22.7071 19.6119C22.7425 19.7416 22.803 19.863 22.8853 19.9693C22.9676 20.0755 23.07 20.1646 23.1867 20.2313L23.1766 20.3125Z" fill="black"/>
<path d="M31.0477 14.3203C31.1328 14.4893 31.2635 14.6312 31.425 14.7299C31.5866 14.8286 31.7724 14.8802 31.9617 14.8789C32.1179 14.8818 32.2721 14.8433 32.4086 14.7672C32.6496 14.6472 32.8331 14.4365 32.9188 14.1813C33.0045 13.9261 32.9854 13.6473 32.8656 13.4062C32.8656 13.4062 32.5812 12.8375 31.7383 11.5172C31.5942 11.2896 31.3655 11.1285 31.1027 11.0695C30.8399 11.0104 30.5643 11.0582 30.3367 11.2023C30.1091 11.3465 29.9481 11.5751 29.889 11.8379C29.83 12.1008 29.8778 12.3763 30.0219 12.6039C30.8039 13.843 31.0477 14.3102 31.0477 14.3203Z" fill="black"/>
<path d="M59.0891 43.8039C59.7027 42.3151 60.0234 40.722 60.0336 39.1117C60.0248 37.1982 59.5595 35.3144 58.6762 33.6168C57.793 31.9193 56.5174 30.457 54.9555 29.3516C54.9754 26.2495 53.9738 23.2272 52.1052 20.751C50.2366 18.2748 47.6049 16.4826 44.6164 15.6508C41.3927 14.8266 37.9831 15.1442 34.967 16.5495C31.951 17.9547 29.5146 20.361 28.0719 23.3594H27.8688C27.3406 23.3594 26.8531 23.3594 26.2844 23.4305C23.3104 23.6862 20.4616 24.7442 18.0416 26.4917C15.6216 28.2391 13.7212 30.6105 12.543 33.3531C12.543 33.4648 12.4516 33.5664 12.411 33.6781C12.2891 33.9828 12.1774 34.2875 12.0656 34.6023C11.9539 34.9172 11.9336 35.0188 11.8727 35.2219C11.8117 35.425 11.7305 35.7398 11.6695 35.9937C11.6086 36.2477 11.5477 36.5117 11.4969 36.7656C11.4461 37.0195 11.4055 37.3039 11.3649 37.568C11.3242 37.832 11.3649 37.8219 11.3039 37.9539C9.03601 38.2061 6.94043 39.2847 5.41734 40.9839C3.89426 42.6831 3.05039 44.8837 3.04689 47.1656C3.03337 49.651 4.00637 52.0403 5.75238 53.8092C7.49839 55.578 9.8748 56.582 12.3602 56.6008H55.0875C56.5573 56.5474 57.9744 56.0396 59.1435 55.1471C60.3126 54.2547 61.1761 53.0216 61.6151 51.6179C62.054 50.2141 62.0468 48.7088 61.5944 47.3093C61.142 45.9098 60.2667 44.6851 59.0891 43.8039ZM30.2758 23.4406C31.6232 21.0941 33.7023 19.2537 36.195 18.2008C38.6876 17.148 41.4566 16.9408 44.0781 17.6109C46.4457 18.2641 48.5592 19.6208 50.1388 21.5015C51.7184 23.3822 52.6897 25.6982 52.9242 28.143L52.8125 28.082C52.5078 27.95 52.2031 27.8383 51.8985 27.7266L51.6852 27.6555C51.2851 27.5224 50.8783 27.4105 50.4664 27.3203C50.0399 27.2289 49.6133 27.1578 49.1766 27.107C48.75 27.107 48.3133 27.0359 47.8766 27.0359H47.2266C46.727 25.0911 45.6008 23.3648 44.0221 22.1239C42.4435 20.883 40.5001 20.1964 38.4922 20.1703C38.1527 20.1701 37.8136 20.1904 37.4766 20.2312C37.3446 20.2312 37.2125 20.282 37.0906 20.3023L36.4813 20.4039L36.0039 20.5461C35.8414 20.5969 35.6688 20.6375 35.5164 20.6984C35.3641 20.7594 35.1914 20.8305 35.0289 20.9016L34.5922 21.0945C34.4346 21.1693 34.2819 21.2541 34.1352 21.3484C33.993 21.4297 33.8508 21.5008 33.7086 21.5922C33.5664 21.6836 33.4344 21.7852 33.3024 21.8867C33.1703 21.9883 33.018 22.0797 32.8961 22.1813C32.7742 22.2828 32.6524 22.4047 32.5305 22.5062C32.4086 22.6078 32.2664 22.7398 32.1344 22.8719L31.8399 23.207C31.7078 23.3492 31.5758 23.4914 31.4539 23.6438H31.1594L30.2758 23.4406ZM55.0469 54.5695H12.3906C10.4462 54.5351 8.59246 53.7411 7.2259 52.3575C5.85933 50.9738 5.08845 49.1103 5.07814 47.1656C5.06461 45.2513 5.81075 43.4096 7.15298 42.0446C8.49521 40.6795 10.324 39.9024 12.2383 39.8836H13.2031L13.2641 38.9289C13.2641 38.5633 13.3352 38.2078 13.386 37.8422C13.386 37.7203 13.386 37.5984 13.386 37.4766C13.386 37.3547 13.4875 36.9891 13.5383 36.7352C13.5891 36.4812 13.6195 36.3086 13.6805 36.1055C13.7652 35.7788 13.8669 35.4567 13.9852 35.1406C13.9852 35.0391 14.0461 34.9273 14.0867 34.8258C15.2969 31.6201 17.5921 28.9398 20.5733 27.2507C23.5546 25.5616 27.0335 24.9705 30.4053 25.5801C33.7772 26.1898 36.8288 27.9617 39.0298 30.5878C41.2309 33.2139 42.4421 36.5282 42.4531 39.9547C42.456 41.3964 42.2297 42.8293 41.7828 44.2C41.74 44.3273 41.7229 44.4619 41.7325 44.5959C41.7421 44.7299 41.7781 44.8607 41.8386 44.9806C41.899 45.1006 41.9827 45.2074 42.0847 45.2948C42.1867 45.3822 42.305 45.4485 42.4328 45.4898C42.5349 45.5215 42.6409 45.5386 42.7477 45.5406C42.9691 45.5522 43.1883 45.4909 43.3717 45.3662C43.5551 45.2415 43.6926 45.0602 43.7633 44.85C44.2793 43.2697 44.5398 41.6171 44.5352 39.9547C44.5159 36.5416 43.4486 33.2169 41.4777 30.4303C39.5068 27.6438 36.7274 25.53 33.5156 24.375C34.1511 23.7135 34.9124 23.1858 35.7549 22.823C36.5973 22.4602 37.5039 22.2696 38.4211 22.2625C40.1135 22.2863 41.7418 22.913 43.0133 24.03C44.2849 25.1471 45.1162 26.6811 45.3578 28.3562L45.5508 29.4531L46.6375 29.1891C47.0318 29.1101 47.4342 29.0794 47.836 29.0977C48.288 29.1014 48.7392 29.1353 49.1867 29.1992H49.4305C50.3163 29.341 51.18 29.5971 52 29.9609L52.3047 30.1031C52.5789 30.2352 52.8531 30.3875 53.107 30.5398C54.5926 31.4256 55.8239 32.6803 56.6816 34.1822C57.5394 35.6841 57.9943 37.3822 58.0024 39.1117C57.9685 40.6964 57.5835 42.2539 56.875 43.6719L56.4485 44.5148L57.261 44.9922C58.0563 45.437 58.7207 46.0831 59.1877 46.8656C59.6547 47.6481 59.9079 48.5396 59.9219 49.4508C59.9335 50.7701 59.4312 52.0422 58.5212 52.9976C57.6113 53.953 56.3652 54.5168 55.0469 54.5695Z" fill="black"/>
</svg>
