<svg width="65" height="65" viewBox="0 0 65 65" fill="none" xmlns="http://www.w3.org/2000/svg">
<path d="M59.0891 31.8094C59.6979 30.3298 60.0185 28.7475 60.0336 27.1477C60.0336 23.9153 58.7496 20.8154 56.464 18.5298C54.1784 16.2442 51.0784 14.9602 47.8461 14.9602H47.1961C46.6739 13.0379 45.538 11.3389 43.9614 10.1216C42.3847 8.90424 40.4536 8.23526 38.4617 8.21641C37.1104 8.19961 35.7732 8.49301 34.553 9.07405C33.3328 9.65508 32.2622 10.5083 31.4235 11.568C30.2577 11.3265 29.0694 11.2108 27.8789 11.2227C27.3406 11.2227 26.8125 11.2227 26.2946 11.2938C22.2859 11.6487 18.5446 13.4544 15.7727 16.3719L15.661 16.4734C15.4274 16.7375 15.1938 17.0016 14.9805 17.2758C14.8501 17.4176 14.7281 17.5668 14.6149 17.7227C14.4731 17.9018 14.3409 18.0882 14.2188 18.2813C14.0258 18.5555 13.8328 18.8297 13.6602 19.1141C13.6602 19.1953 13.5586 19.2766 13.518 19.3578C12.4672 21.1033 11.7605 23.0339 11.436 25.0453V25.1266C11.436 25.3703 11.3547 25.6039 11.3242 25.8375C8.96631 26.1277 6.80652 27.3023 5.28148 29.124C3.75645 30.9456 2.97994 33.2783 3.10893 35.6505C3.23793 38.0227 4.2628 40.2575 5.97637 41.903C7.68994 43.5485 9.96437 44.482 12.3399 44.5149H55.0875C56.5554 44.4795 57.9754 43.986 59.1488 43.1034C60.3222 42.2208 61.1902 40.9934 61.6313 39.5929C62.0724 38.1925 62.0644 36.6891 61.6085 35.2934C61.1527 33.8977 60.2718 32.6795 59.0891 31.8094ZM55.0266 42.4836H12.3703C10.4703 42.4257 8.66683 41.6334 7.33908 40.2731C6.01133 38.9128 5.26283 37.0906 5.25099 35.1898C5.23915 33.2889 5.9649 31.4576 7.2756 30.0809C8.5863 28.7041 10.3798 27.8893 12.2789 27.8078H13.2031L13.2641 26.8938C13.545 23.1231 15.2744 19.6075 18.0898 17.0837C20.9052 14.5598 24.5882 13.2235 28.367 13.3548C32.1458 13.4861 35.7272 15.0748 38.3606 17.788C40.9941 20.5012 42.4752 24.1283 42.4938 27.9094C42.4899 29.3971 42.264 30.8759 41.8235 32.2969C41.7587 32.5459 41.7908 32.8102 41.9133 33.0364C42.0359 33.2626 42.2397 33.4339 42.4836 33.5156C42.5788 33.547 42.678 33.5641 42.7781 33.5664C43.0035 33.576 43.2256 33.5104 43.4095 33.3798C43.5934 33.2493 43.7286 33.0612 43.7938 32.8453C44.2951 31.2304 44.5519 29.5495 44.5555 27.8586C44.5483 27.0426 44.4839 26.2281 44.3625 25.4211C45.4187 25.5137 46.4502 25.7922 47.4094 26.2438C49.3262 27.1909 50.7924 28.8554 51.4901 30.8764C52.1878 32.8973 52.0609 35.1119 51.1367 37.0399C51.0785 37.1611 51.0449 37.2926 51.0379 37.4269C51.0309 37.5613 51.0507 37.6956 51.096 37.8222C51.1414 37.9488 51.2114 38.0652 51.3021 38.1645C51.3928 38.2638 51.5023 38.3441 51.6242 38.4008C51.7619 38.4611 51.9106 38.4923 52.061 38.4922C52.2524 38.4917 52.4398 38.437 52.6015 38.3346C52.7632 38.2322 52.8927 38.0861 52.975 37.9133C54.1279 35.4978 54.2807 32.7248 53.4002 30.1972C52.5196 27.6697 50.6769 25.5919 48.2727 24.4156C46.9077 23.7648 45.4176 23.4183 43.9055 23.4C43.1837 20.8485 41.8649 18.5055 40.0583 16.5646C38.2516 14.6237 36.0089 13.1408 33.5156 12.2383C34.1579 11.5915 34.9223 11.0788 35.7644 10.7301C36.6066 10.3814 37.5096 10.2036 38.4211 10.207C40.1112 10.2217 41.7408 10.8381 43.0176 11.9455C44.2943 13.0529 45.1348 14.579 45.3883 16.25L45.561 17.357L46.6375 17.0828C47.0318 17.0038 47.4342 16.9731 47.836 16.9914C49.1697 16.9914 50.4904 17.2541 51.7226 17.7645C52.9548 18.2749 54.0744 19.023 55.0175 19.9661C55.9606 20.9092 56.7087 22.0288 57.2191 23.261C57.7295 24.4932 57.9922 25.8139 57.9922 27.1477C57.9661 28.7517 57.5846 30.33 56.875 31.7688L56.4789 32.6422L57.3219 33.0992C58.2819 33.6313 59.0404 34.464 59.4809 35.4693C59.9213 36.4746 60.0192 37.5968 59.7595 38.6632C59.4998 39.7296 58.897 40.6811 58.0437 41.3714C57.1903 42.0617 56.1339 42.4524 55.0367 42.4836H55.0266Z" fill="black"/>
<path d="M26.1929 47.125C26.067 47.0782 25.933 47.0568 25.7987 47.0621C25.6644 47.0674 25.5325 47.0994 25.4106 47.156C25.2887 47.2127 25.1793 47.293 25.0887 47.3923C24.9981 47.4916 24.9281 47.6078 24.8828 47.7344L23.3594 51.7969C23.2632 52.0474 23.27 52.3259 23.3785 52.5714C23.487 52.8169 23.6882 53.0095 23.9383 53.107C24.0541 53.155 24.1785 53.1792 24.3039 53.1781C24.5097 53.1767 24.7102 53.1129 24.8788 52.995C25.0475 52.8771 25.1764 52.7107 25.2484 52.518L26.8125 48.4555C26.8623 48.3277 26.8857 48.1911 26.8813 48.0541C26.8769 47.917 26.8448 47.7822 26.7869 47.6579C26.729 47.5336 26.6465 47.4223 26.5444 47.3307C26.4424 47.2391 26.3228 47.1691 26.1929 47.125Z" fill="black"/>
<path d="M43.2656 47.125C43.0151 47.0288 42.7366 47.0357 42.4911 47.1442C42.2456 47.2526 42.053 47.4539 41.9555 47.7039L40.3914 51.7664C40.2952 52.017 40.3021 52.2954 40.4106 52.5409C40.519 52.7864 40.7203 52.979 40.9703 53.0766C41.0862 53.1246 41.2105 53.1487 41.3359 53.1477C41.5434 53.1483 41.7462 53.0854 41.9169 52.9674C42.0875 52.8494 42.218 52.6819 42.2906 52.4875L43.8547 48.425C43.9472 48.1744 43.9372 47.8974 43.827 47.6541C43.7167 47.4108 43.515 47.2207 43.2656 47.125Z" fill="black"/>
<path d="M35.0797 47.125C34.955 47.0776 34.8222 47.0553 34.6889 47.0593C34.5555 47.0632 34.4243 47.0934 34.3026 47.1481C34.1809 47.2028 34.0712 47.281 33.9798 47.3781C33.8883 47.4752 33.8169 47.5893 33.7695 47.7141L30.8852 55.4125C30.8381 55.5378 30.8162 55.6712 30.8209 55.8051C30.8255 55.9389 30.8566 56.0705 30.9123 56.1922C30.968 56.314 31.0472 56.4235 31.1454 56.5146C31.2436 56.6056 31.3588 56.6763 31.4844 56.7227C31.6097 56.7698 31.7431 56.7916 31.877 56.787C32.0108 56.7823 32.1423 56.7513 32.2641 56.6956C32.3859 56.6399 32.4954 56.5606 32.5865 56.4625C32.6775 56.3643 32.7482 56.2491 32.7945 56.1234L35.6789 48.425C35.7709 48.1731 35.7595 47.895 35.6473 47.6515C35.535 47.4079 35.331 47.2187 35.0797 47.125Z" fill="black"/>
<path d="M17.6313 47.1148C17.3781 47.0234 17.0989 47.0362 16.8551 47.1504C16.6114 47.2647 16.423 47.4711 16.3313 47.7242L13.5688 55.4227C13.4773 55.6759 13.4901 55.955 13.6044 56.1988C13.7186 56.4426 13.925 56.631 14.1782 56.7227C14.2889 56.7628 14.4057 56.7835 14.5235 56.7836C14.7322 56.7835 14.9358 56.7191 15.1066 56.5992C15.2775 56.4792 15.4072 56.3096 15.4782 56.1133L18.2813 48.4148C18.3256 48.2869 18.344 48.1514 18.3352 48.0162C18.3264 47.8811 18.2907 47.7491 18.2301 47.6279C18.1695 47.5068 18.0854 47.399 17.9825 47.3109C17.8797 47.2228 17.7603 47.1561 17.6313 47.1148Z" fill="black"/>
<path d="M50.832 47.125C50.7073 47.0776 50.5745 47.0553 50.4412 47.0593C50.3078 47.0632 50.1766 47.0934 50.0549 47.1481C49.9333 47.2028 49.8236 47.281 49.7321 47.3781C49.6406 47.4752 49.5692 47.5893 49.5219 47.7141L46.6375 55.4125C46.5904 55.5378 46.5685 55.6713 46.5732 55.8051C46.5778 55.9389 46.6089 56.0705 46.6646 56.1922C46.7203 56.314 46.7995 56.4235 46.8977 56.5146C46.9959 56.6056 47.1111 56.6763 47.2367 56.7227C47.3506 56.764 47.471 56.7847 47.5922 56.7836C47.798 56.7822 47.9985 56.7183 48.1671 56.6004C48.3358 56.4826 48.4647 56.3162 48.5367 56.1234L51.4312 48.425C51.5232 48.1731 51.5119 47.895 51.3996 47.6515C51.2873 47.4079 51.0833 47.2187 50.832 47.125Z" fill="black"/>
</svg>
