<svg width="65" height="65" viewBox="0 0 65 65" fill="none" xmlns="http://www.w3.org/2000/svg">
<path d="M59.0383 32.957C59.6447 31.4842 59.9619 29.9084 59.9727 28.3156C59.9727 25.0833 58.6886 21.9834 56.403 19.6978C54.1174 17.4122 51.0175 16.1281 47.7852 16.1281H47.1453C46.6222 14.2111 45.4886 12.5167 43.9162 11.3017C42.3438 10.0867 40.4183 9.41716 38.4313 9.39452C37.0827 9.37701 35.7482 9.67021 34.5312 10.2514C33.3142 10.8326 32.2473 11.6862 31.4133 12.7461C30.2474 12.5056 29.0592 12.3899 27.8688 12.4008C27.3407 12.4008 26.8024 12.4008 26.2844 12.4719C22.2875 12.8377 18.5594 14.6422 15.793 17.55L15.6711 17.6719C15.4375 17.9258 15.2141 18.1898 15.0008 18.4539L14.6149 18.9211L14.2492 19.4391C14.0461 19.7234 13.8633 19.9976 13.6805 20.2922C13.6327 20.3644 13.5887 20.439 13.5485 20.5156C12.4972 22.2655 11.7873 24.1989 11.4563 26.2133V26.2844C11.4563 26.5281 11.375 26.7516 11.3446 26.9953C8.97582 27.2667 6.80013 28.4324 5.26206 30.2542C3.724 32.076 2.93967 34.4164 3.06934 36.7971C3.199 39.1778 4.23288 41.4192 5.95972 43.0631C7.68655 44.7071 9.97597 45.6296 12.3602 45.6422H22.5164C22.7858 45.6422 23.0441 45.5352 23.2346 45.3447C23.4251 45.1542 23.5321 44.8959 23.5321 44.6266C23.5321 44.3572 23.4251 44.0989 23.2346 43.9084C23.0441 43.7179 22.7858 43.6109 22.5164 43.6109H12.3602C10.4629 43.5531 8.66187 42.7618 7.33598 41.4034C6.0101 40.045 5.26264 38.2254 5.2508 36.3273C5.23896 34.4291 5.96367 32.6003 7.2725 31.2255C8.58134 29.8506 10.3723 29.0369 12.2688 28.9555H13.193L13.2539 28.0414C13.5346 24.2787 15.2606 20.7706 18.0703 18.2522C20.8801 15.7338 24.5555 14.4005 28.3264 14.5318C32.0973 14.6631 35.671 16.2488 38.2988 18.9565C40.9266 21.6642 42.4044 25.2839 42.4227 29.057C42.4188 30.5414 42.1929 32.0169 41.7524 33.4344C41.7031 33.5903 41.6923 33.7559 41.7207 33.9169C41.7492 34.078 41.8161 34.2298 41.9159 34.3594C42.0156 34.489 42.1451 34.5926 42.2935 34.6615C42.4418 34.7303 42.6046 34.7623 42.768 34.7547C42.9933 34.7643 43.2154 34.6987 43.3993 34.5681C43.5832 34.4375 43.7184 34.2495 43.7836 34.0336C44.285 32.4222 44.5418 30.7446 44.5453 29.057C44.5378 28.241 44.4733 27.4265 44.3524 26.6195C45.4092 26.7149 46.4408 26.9969 47.3992 27.4523C49.3082 28.3995 50.7686 30.0587 51.4659 32.0724C52.1631 34.0862 52.0412 36.2932 51.1266 38.218C51.0115 38.4605 50.9971 38.7387 51.0865 38.9919C51.176 39.245 51.362 39.4524 51.6039 39.5687C51.7401 39.6347 51.8893 39.6694 52.0406 39.6703C52.2321 39.6698 52.4195 39.6151 52.5812 39.5127C52.7429 39.4103 52.8724 39.2642 52.9547 39.0914C54.1055 36.6722 54.2538 33.8962 53.3674 31.3681C52.4809 28.84 50.6315 26.7646 48.2219 25.5937C46.8588 24.9477 45.3731 24.6014 43.8649 24.5781C43.1473 22.0332 41.8345 19.6956 40.035 17.7583C38.2355 15.821 36.0008 14.3397 33.5157 13.4367C34.1538 12.79 34.9145 12.2773 35.7534 11.9285C36.5923 11.5797 37.4923 11.4019 38.4008 11.4055C40.0732 11.4297 41.6834 12.0428 42.9484 13.1369C44.2134 14.231 45.0522 15.7361 45.3172 17.3875L45.4899 18.4844L46.6071 18.2812C46.998 18.2027 47.397 18.172 47.7953 18.1898C50.4889 18.1898 53.0722 19.2599 54.9769 21.1645C56.8816 23.0692 57.9516 25.6525 57.9516 28.3461C57.9342 29.9335 57.5666 31.4976 56.875 32.9266L56.4789 33.8L57.3219 34.2469C58.3134 34.7652 59.1022 35.6014 59.562 36.6213C60.0218 37.6412 60.126 38.786 59.858 39.8722C59.59 40.9584 58.9651 41.9232 58.0836 42.6121C57.2021 43.3011 56.1149 43.6742 54.9961 43.6719H32.4391C32.1697 43.6719 31.9114 43.7789 31.7209 43.9693C31.5305 44.1598 31.4235 44.4181 31.4235 44.6875C31.4235 44.9569 31.5305 45.2152 31.7209 45.4056C31.9114 45.5961 32.1697 45.7031 32.4391 45.7031H55.0367C56.502 45.6651 57.9188 45.1705 59.0894 44.2885C60.26 43.4065 61.1261 42.181 61.5667 40.7831C62.0073 39.3851 62.0005 37.8845 61.5473 36.4907C61.094 35.0968 60.2169 33.8792 59.0383 33.0078V32.957Z" fill="black"/>
<path d="M31.4844 37.1109C31.4876 36.8329 31.3841 36.5642 31.1951 36.3601C31.0062 36.1561 30.7462 36.0322 30.4688 36.0141H23.3594L28.0719 25.5328C28.1265 25.4097 28.1542 25.2763 28.153 25.1416C28.1518 25.0069 28.1218 24.874 28.0651 24.7518C28.0083 24.6297 27.9261 24.5211 27.8239 24.4333C27.7218 24.3455 27.602 24.2806 27.4727 24.243C27.3489 24.1785 27.2132 24.1402 27.074 24.1305C26.9347 24.1208 26.795 24.1399 26.6635 24.1866C26.532 24.2333 26.4115 24.3066 26.3096 24.4019C26.2077 24.4972 26.1265 24.6125 26.0711 24.7406L20.6883 36.7148C20.5893 36.9857 20.601 37.2846 20.7207 37.5469C20.8405 37.8092 21.0587 38.0138 21.3281 38.1164C21.4541 38.1663 21.5888 38.1905 21.7242 38.1875H28.9352L23.7047 51.7969C23.6153 52.0462 23.6268 52.3207 23.7369 52.5616C23.8469 52.8026 24.0467 52.991 24.2938 53.0867C24.5595 53.188 24.8542 53.1821 25.1156 53.0703C25.3771 52.9585 25.5849 52.7496 25.6953 52.4875L31.3422 37.6391C31.4322 37.4774 31.4811 37.296 31.4844 37.1109Z" fill="black"/>
</svg>
