<svg width="32" height="30" viewBox="0 0 32 30" fill="none" xmlns="http://www.w3.org/2000/svg">
<path d="M15.0625 6.18462H16.9375V13.1221H15.0625V6.18462Z" fill="black"/>
<path d="M25.7674 23.872C25.2939 18.8996 21.0944 14.9971 16 14.9971C10.9056 14.9971 6.70613 18.8996 6.23256 23.872H0V25.747H32V23.872H25.7674V23.872ZM16 16.8721C20.0596 16.8721 23.4172 19.9354 23.8824 23.872H8.11756C8.58281 19.9354 11.9404 16.8721 16 16.8721V16.8721Z" fill="black"/>
<path d="M3.97919 27.622H28.0209V29.497H3.97919V27.622Z" fill="black"/>
<path d="M0.707642 20.0423L1.36952 18.2873L5.40608 19.8096L4.7442 21.5646L0.707642 20.0423Z" fill="black"/>
<path d="M8.97339 10.4093L10.704 9.68557L12.3687 13.6661L10.638 14.3898L8.97339 10.4093Z" fill="black"/>
<path d="M19.6542 13.6659L21.3188 9.68538L23.0495 10.4091L21.3848 14.3896L19.6542 13.6659Z" fill="black"/>
<path d="M26.6133 19.8115L30.6498 18.2892L31.3117 20.0442L27.2752 21.5665L26.6133 19.8115Z" fill="black"/>
<path d="M2.16559 12.3018L3.49121 10.9762L8.39602 15.881L7.0704 17.2067L2.16559 12.3018Z" fill="black"/>
<path d="M23.5974 15.8834L28.5022 10.9786L29.8278 12.3042L24.923 17.209L23.5974 15.8834Z" fill="black"/>
<path d="M27.4294 3.42918V7.96236H29.3044V3.42918L30.5782 4.70305L31.9041 3.37724L29.0298 0.502991H27.704L24.8099 3.39693L26.1357 4.72274L27.4294 3.42918Z" fill="black"/>
</svg>
