<svg width="32" height="30" viewBox="0 0 32 30" fill="none" xmlns="http://www.w3.org/2000/svg">
<path d="M15.0625 5.8532H16.9375V12.7907H15.0625V5.8532Z" fill="black"/>
<path d="M25.7675 23.5406C25.2939 18.5681 21.0944 14.6657 16 14.6657C10.9056 14.6657 6.70613 18.5681 6.23256 23.5406H0V25.4156H32V23.5406H25.7675ZM16 16.5407C20.0597 16.5407 23.4172 19.604 23.8824 23.5406H8.11756C8.58281 19.604 11.9404 16.5407 16 16.5407Z" fill="black"/>
<path d="M3.97919 27.2906H28.0208V29.1656H3.97919V27.2906Z" fill="black"/>
<path d="M0.707581 19.7108L1.36946 17.9558L5.40601 19.4781L4.74414 21.2331L0.707581 19.7108Z" fill="black"/>
<path d="M8.97327 10.0777L10.7039 9.35397L12.3685 13.3345L10.6379 14.0582L8.97327 10.0777Z" fill="black"/>
<path d="M19.6534 13.3334L21.3181 9.35294L23.0487 10.0767L21.384 14.0572L19.6534 13.3334Z" fill="black"/>
<path d="M26.6132 19.4801L30.6497 17.9578L31.3116 19.7128L27.275 21.2351L26.6132 19.4801Z" fill="black"/>
<path d="M2.16559 11.9704L3.49121 10.6448L8.39603 15.5496L7.0704 16.8753L2.16559 11.9704Z" fill="black"/>
<path d="M23.5974 15.5519L28.5022 10.6471L29.8278 11.9727L24.923 16.8775L23.5974 15.5519Z" fill="black"/>
<path d="M29.0298 8.2938L31.9041 5.41955L30.5783 4.09374L29.3044 5.36761V0.834427H27.4294V5.36761L26.1357 4.07399L24.8099 5.3998L27.704 8.2938H29.0298Z" fill="black"/>
</svg>
