<svg width="195" height="195" viewBox="0 0 195 195" fill="none" xmlns="http://www.w3.org/2000/svg">
<path d="M112.734 39.9445C101.361 36.8945 89.3388 37.2891 78.1901 41.0782C67.0415 44.8674 57.2685 51.8805 50.1093 61.2292C42.9502 70.5778 38.7272 81.8411 37.9753 93.5921C37.2235 105.343 39.9766 117.053 45.8859 127.237C49.7221 133.977 54.8732 139.878 61.0336 144.588C67.194 149.299 74.2381 152.724 81.7477 154.659C86.8901 156.07 92.198 156.788 97.5305 156.792C107.969 156.781 118.219 154.006 127.238 148.748C133.972 144.898 139.867 139.739 144.577 133.574C149.286 127.41 152.714 120.366 154.659 112.856C156.702 105.316 157.237 97.4467 156.235 89.6991C155.233 81.9516 152.712 74.4778 148.818 67.7054C144.924 60.9331 139.733 54.9952 133.541 50.2316C127.349 45.4681 120.279 41.9723 112.734 39.9445ZM148.657 111.15C146.941 117.87 143.901 124.179 139.715 129.709C135.53 135.239 130.283 139.879 124.282 143.355C118.167 146.913 111.403 149.215 104.387 150.125C97.3712 151.035 90.2441 150.536 83.4234 148.657C76.7038 146.941 70.3942 143.901 64.8642 139.715C59.3342 135.53 54.6949 130.283 51.218 124.282C46.5045 116.174 44.0065 106.969 43.9745 97.5902C43.9426 88.2117 46.3778 78.9897 51.0359 70.8497C55.6939 62.7096 62.411 55.9379 70.5129 51.2139C78.6149 46.49 87.8168 43.98 97.1953 43.9359C101.901 43.9365 106.584 44.572 111.12 45.825C124.749 49.5276 136.354 58.4833 143.39 70.7288C150.427 82.9743 152.321 97.5103 148.657 111.15Z" fill="black"/>
<path d="M97.5 23.7656C98.3081 23.7656 99.0831 23.4446 99.6545 22.8732C100.226 22.3018 100.547 21.5268 100.547 20.7187V11.9742C100.547 11.1661 100.226 10.3911 99.6545 9.81975C99.0831 9.24835 98.3081 8.92734 97.5 8.92734C96.6919 8.92734 95.9169 9.24835 95.3455 9.81975C94.7741 10.3911 94.4531 11.1661 94.4531 11.9742V20.7187C94.4531 21.5268 94.7741 22.3018 95.3455 22.8732C95.9169 23.4446 96.6919 23.7656 97.5 23.7656Z" fill="black"/>
<path d="M134.245 33.7593C134.672 33.9708 135.14 34.0852 135.616 34.0945C136.184 34.0985 136.742 33.9437 137.226 33.6475C137.711 33.3514 138.103 32.9258 138.359 32.4187C139.723 29.8554 141.218 27.3639 142.837 24.9539C143.052 24.6158 143.197 24.2388 143.265 23.8445C143.334 23.4502 143.324 23.0463 143.236 22.6559C143.148 22.2654 142.985 21.8961 142.754 21.5689C142.524 21.2418 142.231 20.9632 141.893 20.7492C141.214 20.314 140.39 20.1658 139.602 20.3371C138.813 20.5085 138.125 20.9854 137.688 21.6633C135.959 24.2518 134.363 26.9263 132.905 29.6765C132.543 30.3961 132.481 31.2295 132.733 31.9945C132.984 32.7596 133.528 33.3941 134.245 33.7593Z" fill="black"/>
<path d="M163.983 61.9125C164.58 61.9078 165.163 61.7277 165.659 61.3945C165.659 61.3945 167.243 60.3586 172.636 57.4031C172.986 57.203 173.293 56.936 173.54 56.6172C173.787 56.2984 173.969 55.934 174.075 55.545C174.181 55.156 174.209 54.7499 174.159 54.3499C174.108 53.9498 173.979 53.5638 173.778 53.2137C173.578 52.8635 173.311 52.5563 172.993 52.3094C172.674 52.0625 172.309 51.8808 171.92 51.7747C171.531 51.6686 171.125 51.6402 170.725 51.691C170.325 51.7419 169.939 51.871 169.589 52.0711C163.983 55.1179 162.337 56.2148 162.155 56.3062C161.598 56.6655 161.174 57.1963 160.946 57.8183C160.718 58.4402 160.699 59.1195 160.892 59.7532C161.085 60.3869 161.479 60.9405 162.015 61.3301C162.551 61.7197 163.199 61.9242 163.861 61.9125H163.983Z" fill="black"/>
<path d="M183.026 94.4531H174.281C173.473 94.4531 172.698 94.7741 172.127 95.3455C171.555 95.9169 171.234 96.6919 171.234 97.5C171.234 98.3081 171.555 99.0831 172.127 99.6545C172.698 100.226 173.473 100.547 174.281 100.547H183.026C183.834 100.547 184.609 100.226 185.18 99.6545C185.752 99.0831 186.073 98.3081 186.073 97.5C186.073 96.6919 185.752 95.9169 185.18 95.3455C184.609 94.7741 183.834 94.4531 183.026 94.4531Z" fill="black"/>
<path d="M172.819 137.688C167.243 134.154 165.689 133.118 165.659 133.088C165.324 132.865 164.95 132.711 164.556 132.634C164.163 132.557 163.758 132.558 163.364 132.637C162.971 132.716 162.597 132.872 162.264 133.096C161.931 133.319 161.646 133.607 161.423 133.941C161.201 134.275 161.047 134.649 160.97 135.043C160.893 135.437 160.894 135.842 160.973 136.235C161.052 136.628 161.208 137.002 161.432 137.335C161.655 137.668 161.942 137.954 162.277 138.176C162.277 138.176 163.83 139.212 169.528 142.838C170.024 143.141 170.592 143.309 171.173 143.325C171.839 143.334 172.49 143.124 173.026 142.728C173.561 142.332 173.952 141.772 174.139 141.132C174.326 140.493 174.298 139.81 174.059 139.188C173.821 138.566 173.385 138.039 172.819 137.688Z" fill="black"/>
<path d="M138.176 162.277C137.954 161.942 137.668 161.655 137.335 161.432C137.002 161.208 136.628 161.052 136.235 160.973C135.842 160.894 135.437 160.893 135.043 160.97C134.649 161.047 134.275 161.201 133.941 161.423C133.607 161.646 133.319 161.931 133.096 162.264C132.872 162.597 132.716 162.971 132.637 163.364C132.558 163.758 132.557 164.163 132.634 164.556C132.711 164.95 132.866 165.324 133.088 165.659C133.088 165.659 134.154 167.243 137.688 172.819C137.966 173.252 138.35 173.608 138.803 173.853C139.256 174.098 139.763 174.225 140.278 174.22C140.853 174.224 141.416 174.054 141.893 173.733C142.231 173.519 142.524 173.24 142.754 172.913C142.985 172.586 143.149 172.217 143.236 171.826C143.324 171.436 143.334 171.032 143.265 170.637C143.197 170.243 143.052 169.866 142.838 169.528C139.212 163.83 138.176 162.277 138.176 162.277Z" fill="black"/>
<path d="M97.5 171.234C96.6919 171.234 95.9169 171.555 95.3455 172.127C94.7741 172.698 94.4531 173.473 94.4531 174.281V183.026C94.4531 183.834 94.7741 184.609 95.3455 185.18C95.9169 185.752 96.6919 186.073 97.5 186.073C98.3081 186.073 99.0831 185.752 99.6545 185.18C100.226 184.609 100.547 183.834 100.547 183.026V174.281C100.547 173.473 100.226 172.698 99.6545 172.127C99.0831 171.555 98.3081 171.234 97.5 171.234Z" fill="black"/>
<path d="M56.3062 162.277C56.3062 162.459 55.118 164.105 52.0711 169.711C51.667 170.418 51.5604 171.257 51.7747 172.042C51.989 172.828 52.5066 173.496 53.2137 173.9C53.9207 174.304 54.7594 174.411 55.545 174.197C56.3307 173.983 56.9991 173.465 57.4031 172.758C60.45 167.365 61.3945 165.78 61.3945 165.78C61.6166 165.446 61.7707 165.072 61.848 164.678C61.9253 164.285 61.9243 163.88 61.8451 163.486C61.7659 163.093 61.61 162.719 61.3863 162.386C61.1626 162.053 60.8755 161.767 60.5414 161.545C60.2073 161.323 59.8327 161.169 59.4391 161.092C59.0454 161.015 58.6404 161.016 58.2471 161.095C57.8539 161.174 57.48 161.33 57.147 161.554C56.814 161.777 56.5283 162.064 56.3062 162.398V162.277Z" fill="black"/>
<path d="M29.6766 132.905C26.9264 134.363 24.2518 135.959 21.6633 137.688C21.1502 138.058 20.7651 138.579 20.5613 139.178C20.3576 139.777 20.3452 140.424 20.5261 141.03C20.707 141.637 21.072 142.171 21.5706 142.561C22.0692 142.95 22.6766 143.175 23.3086 143.203C23.8903 143.188 24.4577 143.019 24.9539 142.716C30.3164 139.273 32.3883 138.237 32.3883 138.237C33.0861 137.862 33.6108 137.231 33.8513 136.477C34.0918 135.722 34.0291 134.904 33.6766 134.195C33.3241 133.486 32.7094 132.942 31.9627 132.679C31.2161 132.415 30.3961 132.452 29.6766 132.783V132.905Z" fill="black"/>
<path d="M23.7656 97.5C23.7656 96.6919 23.4446 95.9169 22.8732 95.3455C22.3018 94.7741 21.5268 94.4531 20.7187 94.4531H11.9742C11.1661 94.4531 10.3911 94.7741 9.81972 95.3455C9.24832 95.9169 8.92731 96.6919 8.92731 97.5C8.92731 98.3081 9.24832 99.0831 9.81972 99.6545C10.3911 100.226 11.1661 100.547 11.9742 100.547H20.7187C21.5268 100.547 22.3018 100.226 22.8732 99.6545C23.4446 99.0831 23.7656 98.3081 23.7656 97.5Z" fill="black"/>
<path d="M21.8461 57.4031C27.5742 60.45 29.6766 61.5773 29.6766 61.5773C30.3961 61.9078 31.2161 61.9452 31.9627 61.6816C32.7094 61.418 33.3241 60.8741 33.6766 60.1651C34.0291 59.4561 34.0918 58.6377 33.8513 57.8832C33.6108 57.1288 33.0861 56.4976 32.3883 56.1234C32.3883 56.1234 30.3164 55.0875 24.7711 52.0711C24.421 51.871 24.0349 51.7419 23.6349 51.691C23.2349 51.6402 22.8288 51.6686 22.4397 51.7747C22.0507 51.8808 21.6864 52.0625 21.3676 52.3094C21.0488 52.5563 20.7817 52.8635 20.5816 53.2137C20.1776 53.9207 20.071 54.7593 20.2853 55.545C20.4995 56.3307 21.0171 56.9991 21.7242 57.4031H21.8461Z" fill="black"/>
<path d="M56.1234 32.3883C56.3747 32.9011 56.765 33.3329 57.2498 33.6346C57.7347 33.9363 58.2946 34.0957 58.8656 34.0945C59.385 34.0929 59.8954 33.9586 60.3482 33.7043C60.8011 33.45 61.1814 33.0842 61.4531 32.6415C61.7248 32.1989 61.8789 31.6941 61.9006 31.1752C61.9223 30.6562 61.8111 30.1404 61.5773 29.6765C61.5773 29.6765 60.5414 27.5742 57.4031 21.8461C57.2031 21.496 56.936 21.1887 56.6172 20.9418C56.2984 20.6949 55.934 20.5132 55.545 20.4071C54.7593 20.1928 53.9207 20.2995 53.2137 20.7035C52.5066 21.1075 51.989 21.7759 51.7747 22.5616C51.5604 23.3473 51.667 24.1859 52.0711 24.893C55.0875 30.4687 56.1234 32.3578 56.1234 32.3883Z" fill="black"/>
</svg>
